name rise38.3101peak57.3503fall81.6963.mot
datacolumns 19
datarows 21
range 20.49825700000000 20.53159600000000
endheader
time	ground_force1_vx	ground_force1_vy	ground_force1_vz	ground_force1_px	ground_force1_py	ground_force1_pz	ground_force2_vx	ground_force2_vy	ground_force2_vz	ground_force2_px	ground_force2_py	ground_force2_pz	ground_torque1_x	ground_torque1_y	ground_torque1_z	ground_torque2_x	ground_torque2_y	ground_torque2_z	
20.49825700000000	-2.69404900000000	678.80439200000001	46.73359300000000	0.20685000000000	0.00000000000000	0.11814500000000	0.00000000000000	0.00000000000000	0.00000000000000	0.00000000000000	0.00000000000000	0.00000000000000	0.00000000000000	20.72911900000000	0.00000000000000	0.00000000000000	0.00000000000000	0.00000000000000	
20.49992600000000	-3.15862900000000	679.86764100000005	46.76472700000000	0.20618100000000	0.00000000000000	0.11813900000000	0.00000000000000	0.00000000000000	0.00000000000000	0.00000000000000	0.00000000000000	0.00000000000000	0.00000000000000	20.83999700000000	0.00000000000000	0.00000000000000	0.00000000000000	0.00000000000000	
20.50159000000000	-3.63630800000000	680.97713699999997	46.79578500000000	0.20550400000000	0.00000000000000	0.11813300000000	0.00000000000000	0.00000000000000	0.00000000000000	0.00000000000000	0.00000000000000	0.00000000000000	0.00000000000000	20.95402000000000	0.00000000000000	0.00000000000000	0.00000000000000	0.00000000000000	
20.50326100000000	-4.12770600000000	682.13299800000004	46.82674600000000	0.20481700000000	0.00000000000000	0.11812600000000	0.00000000000000	0.00000000000000	0.00000000000000	0.00000000000000	0.00000000000000	0.00000000000000	0.00000000000000	21.07111000000000	0.00000000000000	0.00000000000000	0.00000000000000	0.00000000000000	
20.50492600000000	-4.63339800000000	683.33540800000003	46.85761900000000	0.20411600000000	0.00000000000000	0.11811900000000	0.00000000000000	0.00000000000000	0.00000000000000	0.00000000000000	0.00000000000000	0.00000000000000	0.00000000000000	21.19119300000000	0.00000000000000	0.00000000000000	0.00000000000000	0.00000000000000	
20.50659400000000	-5.15390600000000	684.58461299999999	46.88844600000000	0.20339900000000	0.00000000000000	0.11811100000000	0.00000000000000	0.00000000000000	0.00000000000000	0.00000000000000	0.00000000000000	0.00000000000000	0.00000000000000	21.31420000000000	0.00000000000000	0.00000000000000	0.00000000000000	0.00000000000000	
20.50826100000000	-5.68969800000000	685.88091699999995	46.91930000000000	0.20266600000000	0.00000000000000	0.11810300000000	0.00000000000000	0.00000000000000	0.00000000000000	0.00000000000000	0.00000000000000	0.00000000000000	0.00000000000000	21.44006600000000	0.00000000000000	0.00000000000000	0.00000000000000	0.00000000000000	
20.50992300000000	-6.24118500000000	687.22467400000005	46.95028400000000	0.20191400000000	0.00000000000000	0.11809600000000	0.00000000000000	0.00000000000000	0.00000000000000	0.00000000000000	0.00000000000000	0.00000000000000	0.00000000000000	21.56873000000000	0.00000000000000	0.00000000000000	0.00000000000000	0.00000000000000	
20.51159600000000	-6.80871800000000	688.61628599999995	46.98153300000000	0.20114100000000	0.00000000000000	0.11808800000000	0.00000000000000	0.00000000000000	0.00000000000000	0.00000000000000	0.00000000000000	0.00000000000000	0.00000000000000	21.70013600000000	0.00000000000000	0.00000000000000	0.00000000000000	0.00000000000000	
20.51326400000000	-7.39258600000000	690.05619100000001	47.01321000000000	0.20034600000000	0.00000000000000	0.11808000000000	0.00000000000000	0.00000000000000	0.00000000000000	0.00000000000000	0.00000000000000	0.00000000000000	0.00000000000000	21.83422800000000	0.00000000000000	0.00000000000000	0.00000000000000	0.00000000000000	
20.51492500000000	-7.99301500000000	691.54485599999998	47.04550500000000	0.19952800000000	0.00000000000000	0.11807300000000	0.00000000000000	0.00000000000000	0.00000000000000	0.00000000000000	0.00000000000000	0.00000000000000	0.00000000000000	21.97095600000000	0.00000000000000	0.00000000000000	0.00000000000000	0.00000000000000	
20.51659100000000	-8.61016100000000	693.08277499999997	47.07863800000000	0.19868500000000	0.00000000000000	0.11806600000000	0.00000000000000	0.00000000000000	0.00000000000000	0.00000000000000	0.00000000000000	0.00000000000000	0.00000000000000	22.11026900000000	0.00000000000000	0.00000000000000	0.00000000000000	0.00000000000000	
20.51826500000000	-9.24411800000000	694.67045199999995	47.11285300000000	0.19781700000000	0.00000000000000	0.11805900000000	0.00000000000000	0.00000000000000	0.00000000000000	0.00000000000000	0.00000000000000	0.00000000000000	0.00000000000000	22.25212000000000	0.00000000000000	0.00000000000000	0.00000000000000	0.00000000000000	
20.51992500000000	-9.89490600000000	696.30839600000002	47.14842000000000	0.19692200000000	0.00000000000000	0.11805300000000	0.00000000000000	0.00000000000000	0.00000000000000	0.00000000000000	0.00000000000000	0.00000000000000	0.00000000000000	22.39646300000000	0.00000000000000	0.00000000000000	0.00000000000000	0.00000000000000	
20.52158900000000	-10.56247900000000	697.99711500000001	47.18563300000000	0.19600100000000	0.00000000000000	0.11804700000000	0.00000000000000	0.00000000000000	0.00000000000000	0.00000000000000	0.00000000000000	0.00000000000000	0.00000000000000	22.54325000000000	0.00000000000000	0.00000000000000	0.00000000000000	0.00000000000000	
20.52326300000000	-11.24672100000000	699.73709799999995	47.22480700000000	0.19505200000000	0.00000000000000	0.11804200000000	0.00000000000000	0.00000000000000	0.00000000000000	0.00000000000000	0.00000000000000	0.00000000000000	0.00000000000000	22.69243700000000	0.00000000000000	0.00000000000000	0.00000000000000	0.00000000000000	
20.52492200000000	-11.94744300000000	701.52881400000001	47.26628000000000	0.19407500000000	0.00000000000000	0.11803700000000	0.00000000000000	0.00000000000000	0.00000000000000	0.00000000000000	0.00000000000000	0.00000000000000	0.00000000000000	22.84397500000000	0.00000000000000	0.00000000000000	0.00000000000000	0.00000000000000	
20.52658900000000	-12.66438800000000	703.37269300000003	47.31040900000000	0.19307100000000	0.00000000000000	0.11803300000000	0.00000000000000	0.00000000000000	0.00000000000000	0.00000000000000	0.00000000000000	0.00000000000000	0.00000000000000	22.99781800000000	0.00000000000000	0.00000000000000	0.00000000000000	0.00000000000000	
20.52825700000000	-13.39722900000000	705.26912300000004	47.35757000000000	0.19204000000000	0.00000000000000	0.11803000000000	0.00000000000000	0.00000000000000	0.00000000000000	0.00000000000000	0.00000000000000	0.00000000000000	0.00000000000000	23.15391600000000	0.00000000000000	0.00000000000000	0.00000000000000	0.00000000000000	
20.52993000000000	-14.14557000000000	707.21843600000000	47.40815500000000	0.19098200000000	0.00000000000000	0.11802700000000	0.00000000000000	0.00000000000000	0.00000000000000	0.00000000000000	0.00000000000000	0.00000000000000	0.00000000000000	23.31221700000000	0.00000000000000	0.00000000000000	0.00000000000000	0.00000000000000	
20.53159600000000	-14.90894700000000	709.22089500000004	47.46257100000000	0.18989800000000	0.00000000000000	0.11802500000000	0.00000000000000	0.00000000000000	0.00000000000000	0.00000000000000	0.00000000000000	0.00000000000000	0.00000000000000	23.47266700000000	0.00000000000000	0.00000000000000	0.00000000000000	0.00000000000000	
